HIERARCHY
ROOT Hips
{
 OFFSET 0.000000 0.000000 0.000000
 CHANNELS 6 Xposition Yposition Zposition Yrotation Xrotation Zrotation
 JOINT Chest
 {
  OFFSET 0.000000 9.585900 0.002600
  CHANNELS 3 Yrotation Xrotation Zrotation
  JOINT Chest2
  {
   OFFSET 0.000000 9.601200 -0.005300
   CHANNELS 3 Yrotation Xrotation Zrotation
   JOINT Chest3
   {
    OFFSET 0.000000 9.561800 0.000000
    CHANNELS 3 Yrotation Xrotation Zrotation
    JOINT Chest4
    {
     OFFSET 0.000000 9.552100 0.000000
     CHANNELS 3 Yrotation Xrotation Zrotation
     JOINT Neck
     {
      OFFSET 0.000000 14.453000 0.000000
      CHANNELS 3 Yrotation Xrotation Zrotation
      JOINT Head
      {
       OFFSET 0.000000 8.936500 -0.011300
       CHANNELS 3 Yrotation Xrotation Zrotation
       End Site
       {
        OFFSET 0.000000 17.073600 -0.006000
       }
      }
     }
     JOINT RightCollar
     {
      OFFSET -2.921100 9.558500 0.000000
      CHANNELS 3 Yrotation Xrotation Zrotation
      JOINT RightShoulder
      {
       OFFSET -13.519700 0.000000 0.000000
       CHANNELS 3 Yrotation Xrotation Zrotation
       JOINT RightElbow
       {
        OFFSET 0.000000 -29.696600 0.000000
        CHANNELS 3 Yrotation Xrotation Zrotation
        JOINT RightWrist
        {
         OFFSET 0.000000 -24.004700 0.000000
         CHANNELS 3 Yrotation Xrotation Zrotation
         End Site
         {
          OFFSET 0.000000 -17.728500 0.000000
         }
        }
       }
      }
     }
     JOINT LeftCollar
     {
      OFFSET 2.921100 9.558500 0.000000
      CHANNELS 3 Yrotation Xrotation Zrotation
      JOINT LeftShoulder
      {
       OFFSET 13.519700 0.000000 0.000000
       CHANNELS 3 Yrotation Xrotation Zrotation
       JOINT LeftElbow
       {
        OFFSET 0.000000 -29.696600 0.000000
        CHANNELS 3 Yrotation Xrotation Zrotation
        JOINT LeftWrist
        {
         OFFSET 0.000000 -24.004700 0.000000
         CHANNELS 3 Yrotation Xrotation Zrotation
         End Site
         {
          OFFSET 0.000000 -17.728500 0.000000
         }
        }
       }
      }
     }
    }
   }
  }
 }
 JOINT RightHip
 {
  OFFSET -7.771700 -0.012900 -0.001300
  CHANNELS 3 Yrotation Xrotation Zrotation
  JOINT RightKnee
  {
   OFFSET 0.000000 -40.869800 0.001200
   CHANNELS 3 Yrotation Xrotation Zrotation
   JOINT RightAnkle
   {
    OFFSET 0.000000 -39.717900 0.002100
    CHANNELS 3 Yrotation Xrotation Zrotation
    JOINT RightToe
    {
     OFFSET 0.000000 -4.965400 11.033500
     CHANNELS 3 Yrotation Xrotation Zrotation
     End Site
     {
      OFFSET 0.000000 -1.423100 5.872300
     }
    }
   }
  }
 }
 JOINT LeftHip
 {
  OFFSET 7.771700 -0.012900 -0.001300
  CHANNELS 3 Yrotation Xrotation Zrotation
  JOINT LeftKnee
  {
   OFFSET 0.000000 -40.869800 0.001200
   CHANNELS 3 Yrotation Xrotation Zrotation
   JOINT LeftAnkle
   {
    OFFSET 0.000000 -39.717900 0.002100
    CHANNELS 3 Yrotation Xrotation Zrotation
    JOINT LeftToe
    {
     OFFSET 0.000000 -4.965400 11.033500
     CHANNELS 3 Yrotation Xrotation Zrotation
     End Site
     {
      OFFSET 0.000000 -1.423100 5.872300
     }
    }
   }
  }
 }
}
MOTION
Frames: 12
Frame Time: 0.008333
-47.951336 54.868869 45.504408 -178.557496 -30.073696 -10.246045 0.481154 14.159661 4.583503 0.226011 8.168809 1.702961 0.312397 10.218892 2.155209 0.216278 8.176806 1.724902 3.290103 16.115432 -1.058971 3.713492 -8.744383 -1.842149 1.683734 3.645327 -2.968508 -19.796838 -10.334201 7.473437 -57.771529 -47.069246 63.123370 3.470405 -7.400190 2.737547 -9.064637 3.331689 -3.528936 8.468446 -6.572812 -1.319415 -49.480939 -85.941333 57.683592 19.341224 -11.313287 -9.311423 -16.699394 -37.772406 3.785778 29.109833 85.938724 25.173127 0.294650 -15.721837 2.861099 -0.062677 0.475512 -0.018703 -14.764029 -48.122056 14.301359 171.347559 79.089903 166.445388 -1.171106 -16.791976 2.356118 -0.621552 -2.167778 -0.272006
-47.958952 54.872787 45.505936 -178.548950 -30.077777 -10.253407 0.485731 14.154821 4.577101 0.227145 8.170006 1.697617 0.309671 10.223823 2.164687 0.222131 8.172147 1.690461 3.293253 16.126189 -1.017360 3.711623 -8.736320 -1.836365 1.674667 3.652643 -2.925847 -19.799984 -10.311731 7.447088 -57.921385 -47.117471 63.325293 3.454513 -7.390682 2.794908 -9.065028 3.384383 -3.508801 8.501222 -6.569306 -1.329803 -48.996460 -86.256147 57.167614 19.426448 -11.329722 -9.093508 -16.697865 -37.765563 3.777910 29.085979 85.934815 25.150719 0.293232 -15.720627 2.863907 -0.063246 0.474930 -0.017930 -14.744167 -48.119265 14.291538 171.319184 79.093472 166.420972 -1.187839 -16.791591 2.369176 -0.617090 -2.164470 -0.269021
-47.966224 54.876681 45.508002 -178.539469 -30.080171 -10.262640 0.494758 14.144464 4.563774 0.220137 8.177283 1.707368 0.311492 10.224003 2.159761 0.221056 8.173796 1.691757 3.293121 16.134090 -1.004466 3.695982 -8.715999 -1.824832 1.659893 3.657638 -2.915623 -19.793147 -10.300275 7.439725 -58.051845 -47.196324 63.499445 3.461839 -7.381391 2.869758 -9.064609 3.398942 -3.499458 8.543227 -6.543156 -1.340738 -48.538549 -86.560650 56.672436 19.521650 -11.364218 -8.855027 -16.689966 -37.760077 3.766851 29.061615 85.927929 25.135029 0.291845 -15.717871 2.867482 -0.062556 0.475803 -0.016278 -14.731377 -48.118731 14.285413 171.282757 79.096159 166.388440 -1.203807 -16.787274 2.382539 -0.611626 -2.164614 -0.269352
-47.972623 54.881296 45.509508 -178.523960 -30.088261 -10.278374 0.488418 14.151122 4.568111 0.222095 8.175939 1.704190 0.314506 10.220899 2.141011 0.219984 8.178416 1.706290 3.287509 16.143709 -0.997537 3.685155 -8.707378 -1.811115 1.646993 3.660349 -2.909391 -19.786613 -10.292469 7.440076 -58.161485 -47.331560 63.646123 3.493671 -7.369865 2.962222 -9.065334 3.406263 -3.488057 8.586641 -6.511514 -1.355682 -48.229953 -86.861446 56.324416 19.619860 -11.412805 -8.599702 -16.700362 -37.744145 3.771557 28.945593 85.923468 25.010979 0.292929 -15.714355 2.876489 -0.064153 0.473572 -0.018871 -14.729690 -48.108480 14.284382 171.263586 79.100618 166.371771 -1.214307 -16.788222 2.389029 -0.606677 -2.160789 -0.266637
-47.978420 54.885539 45.512098 -178.516970 -30.092605 -10.290336 0.489775 14.151975 4.573668 0.220029 8.178186 1.706118 0.314376 10.220497 2.135589 0.220249 8.179436 1.703596 3.279829 16.150353 -0.991982 3.689138 -8.709910 -1.805818 1.616196 3.659370 -2.913754 -19.765387 -10.282619 7.446914 -58.234783 -47.544016 63.762550 3.549381 -7.354203 3.070240 -9.067831 3.417564 -3.483530 8.626905 -6.491959 -1.368627 -48.019582 -87.158590 56.077364 19.717279 -11.472966 -8.324636 -16.705793 -37.734506 3.775861 28.910446 85.915658 24.972519 0.291579 -15.709528 2.879966 -0.064611 0.473579 -0.017402 -14.728562 -48.101109 14.288281 171.260259 79.106488 166.369950 -1.219389 -16.792880 2.384804 -0.604476 -2.152591 -0.255393
-47.984541 54.890218 45.513982 -178.495962 -30.101540 -10.303875 0.477777 14.158243 4.570106 0.219428 8.179951 1.705258 0.313736 10.223684 2.142087 0.221214 8.179642 1.699298 3.254499 16.162460 -0.987432 3.691468 -8.708619 -1.798974 1.611688 3.659090 -2.909552 -19.786471 -10.275799 7.440750 -58.243818 -47.843800 63.843468 3.625574 -7.336674 3.178934 -9.085362 3.426662 -3.486414 8.674482 -6.481525 -1.377689 -48.018454 -87.445379 56.044261 19.816195 -11.545916 -8.020998 -16.704067 -37.718244 3.771066 28.803296 85.911009 24.862646 0.284100 -15.707594 2.894464 -0.064400 0.474006 -0.015976 -14.729130 -48.089751 14.288424 171.271210 79.113980 166.375507 -1.232883 -16.790279 2.399581 -0.600836 -2.149901 -0.253113
-47.989966 54.893880 45.517810 -178.491087 -30.101058 -10.309347 0.483909 14.148000 4.567730 0.217236 8.184713 1.709317 0.312271 10.225938 2.140805 0.218220 8.181801 1.704391 3.240305 16.166024 -0.983479 3.649881 -8.691802 -1.772899 1.597067 3.659621 -2.915578 -19.800405 -10.270420 7.438015 -58.194724 -48.235691 63.880441 3.716465 -7.324722 3.270027 -9.095571 3.429025 -3.487760 8.708993 -6.471846 -1.388687 -48.495001 -87.708706 56.492425 19.917596 -11.637053 -7.686046 -16.707582 -37.716367 3.774342 28.804865 85.903295 24.857357 0.277950 -15.702643 2.902050 -0.065406 0.474291 -0.017283 -14.718704 -48.089031 14.293825 171.281575 79.122511 166.383281 -1.256461 -16.791168 2.412465 -0.582776 -2.145503 -0.253057
-47.994454 54.897838 45.521197 -178.484009 -30.104403 -10.317716 0.481789 14.144154 4.569731 0.215590 8.182781 1.704018 0.311906 10.232752 2.143858 0.217607 8.182171 1.704735 3.236951 16.169772 -0.976484 3.637434 -8.686114 -1.764122 1.572908 3.654322 -2.915500 -19.809562 -10.259877 7.434420 -58.081272 -48.710319 63.870124 3.809637 -7.317835 3.339234 -9.100579 3.429040 -3.486670 8.728009 -6.464860 -1.390973 -49.578676 -87.936043 57.558155 20.022577 -11.753784 -7.317027 -16.704166 -37.709078 3.773931 28.729696 85.897877 24.782025 0.277790 -15.699935 2.907796 -0.063299 0.474694 -0.019052 -14.723136 -48.085273 14.302507 171.282712 79.127120 166.376158 -1.256574 -16.783854 2.420847 -0.588428 -2.148368 -0.253601
-47.999189 54.901937 45.523924 -178.474672 -30.111706 -10.322022 0.478657 14.140294 4.567931 0.211413 8.192849 1.705600 0.309036 10.221298 2.141530 0.215323 8.189556 1.704275 3.235558 16.176748 -0.972014 3.638456 -8.684529 -1.763808 1.561923 3.656101 -2.912035 -19.825543 -10.256704 7.427968 -57.936071 -49.229260 63.831527 3.897255 -7.309794 3.388892 -9.101080 3.428526 -3.485014 8.745107 -6.455353 -1.395810 -51.597770 -88.121679 59.557224 20.130758 -11.899404 -6.916082 -16.701929 -37.698942 3.771323 28.686582 85.891928 24.731120 0.272517 -15.697273 2.918478 -0.061756 0.474286 -0.020192 -14.720905 -48.078431 14.300626 171.289379 79.133355 166.375582 -1.257009 -16.774166 2.430955 -0.591840 -2.153134 -0.255467
-48.002912 54.905981 45.526576 -178.457637 -30.117692 -10.332646 0.467807 14.143496 4.570163 0.211276 8.187174 1.706014 0.306693 10.225643 2.142409 0.213875 8.181526 1.705566 3.225063 16.189820 -0.966944 3.626097 -8.671126 -1.756143 1.553893 3.668525 -2.912447 -19.853017 -10.257100 7.428341 -57.781934 -49.746087 63.790951 3.981523 -7.297355 3.424854 -9.104679 3.432432 -3.481892 8.769118 -6.453940 -1.403411 -54.178090 -88.263108 62.106746 20.236922 -12.078006 -6.482504 -16.705680 -37.687728 3.764150 28.661028 85.885440 24.707624 0.272971 -15.694119 2.920487 -0.060387 0.472729 -0.020373 -14.705290 -48.070710 14.294766 171.306606 79.143077 166.398426 -1.277175 -16.778231 2.440751 -0.581774 -2.143541 -0.249514
-48.005957 54.910020 45.528827 -178.447943 -30.126098 -10.340140 0.463989 14.147331 4.573130 0.211551 8.179160 1.705934 0.303880 10.222644 2.142685 0.211598 8.179198 1.705780 3.202069 16.207693 -0.953819 3.597749 -8.633250 -1.735967 1.545794 3.685687 -2.909912 -19.873677 -10.261239 7.423666 -57.658176 -50.215458 63.776801 4.061323 -7.281345 3.455385 -9.105568 3.445269 -3.479162 8.773675 -6.454274 -1.404987 -57.500918 -88.374615 65.409616 20.336781 -12.293998 -6.007675 -16.698440 -37.674992 3.758290 28.620120 85.879791 24.668792 0.272264 -15.693863 2.922184 -0.064277 0.474698 -0.016160 -14.700305 -48.062211 14.295733 171.297228 79.147248 166.386265 -1.284607 -16.772964 2.449183 -0.584850 -2.145605 -0.249479
-48.008444 54.913675 45.531214 -178.439746 -30.131547 -10.346725 0.458970 14.145510 4.575937 0.210762 8.175795 1.706050 0.302775 10.218462 2.142779 0.210838 8.175699 1.706029 3.196965 16.228643 -0.949424 3.576856 -8.605650 -1.716430 1.510265 3.698566 -2.897035 -19.892577 -10.270770 7.386671 -57.546232 -50.599527 63.806653 4.132057 -7.268909 3.484810 -9.105975 3.457228 -3.476846 8.777598 -6.456140 -1.405439 -61.183374 -88.460197 69.065225 20.431819 -12.545598 -5.490161 -16.701041 -37.666161 3.758209 28.601216 85.874230 24.646853 0.269401 -15.690777 2.925624 -0.064765 0.474066 -0.015489 -14.703269 -48.056190 14.299804 171.293649 79.150634 166.378090 -1.284505 -16.767726 2.452851 -0.590859 -2.147933 -0.250173
